# ProBuilder 5.0.6
# https://unity3d.com/unity/features/worldbuilding/probuilder
# 29/03/2023 21:07:45

mtllib ./LargeWall.mtl
o LargeWall

g LargeWall
v -0.005818576 -4.983912 2.520992
v -0.8843412 -4.983912 2.520992
v -0.005818576 3.766088 2.520992
v -0.8843412 3.766088 2.520992
v -0.8843412 -4.983912 -30.26631
v -0.8843412 3.766088 -30.26631
v -0.005818576 -4.983912 -30.26631
v -0.005818576 3.766088 -30.26631

vt -0.005818576 -4.983912
vt -0.8843412 -4.983912
vt -0.005818576 3.766088
vt -0.8843412 3.766088
vt 2.520992 -4.983912
vt -30.26631 -4.983912
vt 2.520992 3.766088
vt -30.26631 3.766088
vt 0.8843412 -4.983912
vt 0.005818576 -4.983912
vt 0.8843412 3.766088
vt 0.005818576 3.766088
vt 30.26631 -4.983912
vt -2.520992 -4.983912
vt 30.26631 3.766088
vt -2.520992 3.766088
vt 0.005818576 2.520992
vt 0.8843412 2.520992
vt 0.005818576 -30.26631
vt 0.8843412 -30.26631
vt -0.005818576 -30.26631
vt -0.8843412 -30.26631
vt -0.005818576 2.520992
vt -0.8843412 2.520992

vn 0 0 1
vn -1 0 0
vn 0 0 -1
vn 1 0 0
vn 0 1 0
vn 0 -1 0

usemtl ProBuilder_Default_URP
f 3/3/1 4/4/1 2/2/1 1/1/1
f 4/7/2 6/8/2 5/6/2 2/5/2
f 6/11/3 8/12/3 7/10/3 5/9/3
f 8/15/4 3/16/4 1/14/4 7/13/4
f 8/19/5 6/20/5 4/18/5 3/17/5
f 1/23/6 2/24/6 5/22/6 7/21/6

