# ProBuilder 5.0.6
# https://unity3d.com/unity/features/worldbuilding/probuilder
# 21/03/2023 23:16:38

mtllib ./LiftWall.mtl
o LiftWall

g WallSegment_7
v 0.5014595 3.523888 25.81241
v 0.5014595 -3.857049 25.81241
v -0.495633 3.523891 25.81241
v -0.495633 -3.857046 25.81241
v 0.5014595 -3.857049 -3.487593
v -0.495633 -3.857046 -3.487593
v 0.5014595 3.523888 -3.487593
v -0.495633 3.523891 -3.487593

vt 0.5014595 3.523888
vt 0.5014595 -3.857049
vt -0.495633 3.523891
vt -0.495633 -3.857046
vt 0.5014715 25.81241
vt 0.5014715 -3.487593
vt -0.495621 25.81241
vt -0.495621 -3.487593
vt -0.5014595 -3.857049
vt -0.5014595 3.523888
vt 0.495633 -3.857046
vt 0.495633 3.523891
vt -0.5014485 -3.487593
vt -0.5014485 25.81241
vt 0.4956439 -3.487593
vt 0.4956439 25.81241
vt 25.81241 3.523891
vt 25.81241 -3.857046
vt -3.487593 3.523891
vt -3.487593 -3.857046
vt 3.487593 3.523888
vt 3.487593 -3.857049
vt -25.81241 3.523888
vt -25.81241 -3.857049

vn 0 0 1
vn -3.108479E-06 -1 0
vn 0 0 -1
vn 3.108479E-06 1 0
vn -1 0 0
vn 1 0 0

usemtl ProBuilder_Default_URP
f 3/3/1 4/4/1 2/2/1 1/1/1
f 4/7/2 6/8/2 5/6/2 2/5/2
f 6/11/3 8/12/3 7/10/3 5/9/3
f 8/15/4 3/16/4 1/14/4 7/13/4
f 8/19/5 6/20/5 4/18/5 3/17/5
f 1/23/6 2/24/6 5/22/6 7/21/6

