# ProBuilder 5.0.6
# https://unity3d.com/unity/features/worldbuilding/probuilder
# 19/03/2023 22:05:16

mtllib ./Pillar.mtl
o Pillar

g Pillar
v -1.109447 -22.50073 6.310975
v -10.49577 -22.50073 6.310975
v -1.109447 0.5000029 6.310975
v -10.49577 0.5000029 6.310975
v -10.49577 -22.50073 -0.7743213
v -10.49577 0.5000029 -0.7743213
v -1.109447 -22.50073 -0.7743213
v -1.109447 0.5000029 -0.7743213

vt -1.109447 -22.50073
vt -10.49577 -22.50073
vt -1.109447 0.5000029
vt -10.49577 0.5000029
vt 6.310975 -22.50073
vt -0.7743213 -22.50073
vt 6.310975 0.5000029
vt -0.7743213 0.5000029
vt 10.49577 -22.50073
vt 1.109447 -22.50073
vt 10.49577 0.5000029
vt 1.109447 0.5000029
vt 0.7743213 -22.50073
vt -6.310975 -22.50073
vt 0.7743213 0.5000029
vt -6.310975 0.5000029
vt 1.109447 6.310975
vt 10.49577 6.310975
vt 1.109447 -0.7743213
vt 10.49577 -0.7743213
vt -1.109447 -0.7743213
vt -10.49577 -0.7743213
vt -1.109447 6.310975
vt -10.49577 6.310975

vn 0 0 1
vn -1 0 0
vn 0 0 -1
vn 1 0 0
vn 0 1 0
vn 0 -1 0

usemtl ProBuilder_Default_URP
f 3/3/1 4/4/1 2/2/1 1/1/1
f 4/7/2 6/8/2 5/6/2 2/5/2
f 6/11/3 8/12/3 7/10/3 5/9/3
f 8/15/4 3/16/4 1/14/4 7/13/4
f 8/19/5 6/20/5 4/18/5 3/17/5
f 1/23/6 2/24/6 5/22/6 7/21/6

