# ProBuilder 5.0.6
# https://unity3d.com/unity/features/worldbuilding/probuilder
# 09/04/2023 13:12:52

mtllib ./PlatformingSwitchRoomWall.mtl
o PlatformingSwitchRoomWall

g Cube_28
v 0.4982716 2.49012 -17.11069
v 0.4982715 2.49012 4.715044
v -0.4988208 2.49012 -17.11069
v -0.4988209 2.49012 4.715044
v 0.4982715 -2.49012 4.71494
v -0.4988209 -2.49012 4.71494
v 0.4982716 -2.49012 -17.11079
v -0.4988208 -2.49012 -17.11079

vt -0.498271 -17.11069
vt -0.4982709 4.715044
vt 0.4988214 -17.11069
vt 0.4988215 4.715044
vt 0.4982715 2.490218
vt 0.4982715 -2.490021
vt -0.4988209 2.490218
vt -0.4988209 -2.490021
vt 0.4982721 4.71494
vt 0.4982722 -17.11079
vt -0.4988203 4.71494
vt -0.4988202 -17.11079
vt -0.4982716 -2.49048
vt -0.4982716 2.489759
vt 0.4988208 -2.49048
vt 0.4988208 2.489759
vt -17.11069 2.49012
vt 4.715044 2.49012
vt -17.11079 -2.49012
vt 4.71494 -2.49012
vt 17.11079 -2.49012
vt -4.71494 -2.49012
vt 17.11069 2.49012
vt -4.715044 2.49012

vn 2.391138E-07 1 6.530042E-16
vn -4.990925E-12 -2.087259E-05 1
vn -2.391138E-07 -1 -6.530042E-16
vn 5.036713E-12 2.106408E-05 -1
vn -1 5.752462E-14 -2.730935E-09
vn 1 -5.752462E-14 2.730934E-09

usemtl ProBuilder_Default_URP
f 3/3/1 4/4/1 2/2/1 1/1/1
f 4/7/2 6/8/2 5/6/2 2/5/2
f 6/11/3 8/12/3 7/10/3 5/9/3
f 8/15/4 3/16/4 1/14/4 7/13/4
f 8/19/5 6/20/5 4/18/5 3/17/5
f 1/23/6 2/24/6 5/22/6 7/21/6

