# ProBuilder 5.0.6
# https://unity3d.com/unity/features/worldbuilding/probuilder
# 09/04/2023 13:14:12

mtllib ./PlatformingRoomDividingWall.mtl
o PlatformingRoomDividingWall

g Cube_26
v 0.4982639 2.49012 -36.97545
v 0.4982639 2.49012 4.789236
v -0.4988284 2.49012 -36.97545
v -0.4988285 2.49012 4.789236
v 0.4982639 -2.49012 4.788797
v -0.4988285 -2.49012 4.788797
v 0.4982639 -2.49012 -36.97585
v -0.4988284 -2.49012 -36.97585

vt -0.4982633 -36.97545
vt -0.4982633 4.789236
vt 0.498829 -36.97545
vt 0.4988291 4.789236
vt 0.4982639 2.490541
vt 0.4982639 -2.489698
vt -0.4988285 2.490542
vt -0.4988285 -2.489698
vt 0.4982645 4.788797
vt 0.4982645 -36.97585
vt -0.4988279 4.788797
vt -0.4988278 -36.97585
vt -0.4982639 -2.493094
vt -0.4982639 2.487146
vt 0.4988284 -2.493093
vt 0.4988284 2.487146
vt -36.97545 2.49012
vt 4.789236 2.49012
vt -36.97585 -2.49012
vt 4.788797 -2.49012
vt 36.97585 -2.49012
vt -4.788797 -2.49012
vt 36.97545 2.49012
vt -4.789236 2.49012

vn 2.391138E-07 1 3.412523E-16
vn -2.106262E-11 -8.808615E-05 1
vn -2.391138E-07 -1 -3.412526E-16
vn 1.923109E-11 8.042649E-05 -1
vn -1 1.14781E-13 -1.427154E-09
vn 1 -1.147811E-13 1.427155E-09

usemtl ProBuilder_Default_URP
f 3/3/1 4/4/1 2/2/1 1/1/1
f 4/7/2 6/8/2 5/6/2 2/5/2
f 6/11/3 8/12/3 7/10/3 5/9/3
f 8/15/4 3/16/4 1/14/4 7/13/4
f 8/19/5 6/20/5 4/18/5 3/17/5
f 1/23/6 2/24/6 5/22/6 7/21/6

