# ProBuilder 5.0.6
# https://unity3d.com/unity/features/worldbuilding/probuilder
# 29/03/2023 22:04:27

mtllib ./LeverPole.mtl
o LeverPole

g Cylinder
v -0.1242099 -1.140609 0
v -0.1242099 1.140609 0
v -0.06210494 -1.140609 0.1147382
v -0.06210494 1.140609 0.1147382
v 0.06210495 -1.140609 0.1147382
v 0.06210495 1.140609 0.1147382
v 0.1242099 -1.140609 -1.158249E-08
v 0.1242099 1.140609 -1.158249E-08
v 0.06210493 -1.140609 -0.1147382
v 0.06210493 1.140609 -0.1147382
v -0.06210493 -1.140609 -0.1147382
v -0.06210493 1.140609 -0.1147382
v 0 -1.140609 0
v 0 1.140609 0

vt -0.05912601 -1.140609
vt -0.05912601 1.140609
vt 0.0713419 -1.140609
vt 0.0713419 1.140609
vt -0.06210494 -1.140609
vt -0.06210494 1.140609
vt 0.06210494 -1.140609
vt 0.06210494 1.140609
vt -0.0713419 -1.140609
vt -0.0713419 1.140609
vt 0.05912601 -1.140609
vt 0.05912601 1.140609
vt -0.1242099 0
vt 0 0
vt -0.06210494 0.1147382
vt 0.1242099 0
vt 0.06210494 0.1147382
vt 0.06210493 -0.1147382
vt -0.06210493 -0.1147382

vn -1 0 -1.6944E-08
vn -0.511851 0 0.8590742
vn 0.5118511 0 0.8590742
vn 1 0 -8.471997E-08
vn 0.511851 0 -0.8590742
vn -0.511851 0 -0.8590742
vn 0 -1 0
vn 0 1 0

usemtl ProBuilder_Default_URP
f 1/13/7 13/14/7 3/15/7
f 3/15/7 13/14/7 5/17/7
f 5/17/7 13/14/7 7/16/7
f 7/16/7 13/14/7 9/18/7
f 9/18/7 13/14/7 11/19/7
f 11/19/7 13/14/7 1/13/7
f 4/17/8 14/14/8 2/16/8
f 6/15/8 14/14/8 4/17/8
f 8/13/8 14/14/8 6/15/8
f 10/19/8 14/14/8 8/13/8
f 12/18/8 14/14/8 10/19/8
f 2/16/8 14/14/8 12/18/8
f 4/4/2 2/2/1 1/1/1
f 1/1/1 3/3/2 4/4/2
f 6/8/3 4/6/2 3/5/2
f 3/5/2 5/7/3 6/8/3
f 8/12/4 6/10/3 5/9/3
f 5/9/3 7/11/4 8/12/4
f 10/4/5 8/2/4 7/1/4
f 7/1/4 9/3/5 10/4/5
f 12/8/6 10/6/5 9/5/5
f 9/5/5 11/7/6 12/8/6
f 2/12/1 12/10/6 11/9/6
f 11/9/6 1/11/1 2/12/1

