# ProBuilder 5.0.6
# https://unity3d.com/unity/features/worldbuilding/probuilder
# 29/03/2023 22:04:03

mtllib ./LeverBase.mtl
o LeverBase

g Cube
v 0.5 -0.25 0.3635077
v -0.5 -0.25 0.3635077
v 0.5 0.25 0.3635077
v -0.5 0.25 0.3635077
v -0.5 -0.25 -0.6364923
v -0.5 0.25 -0.6364923
v 0.5 -0.25 -0.6364923
v 0.5 0.25 -0.6364923

vt 0.5 -0.25
vt -0.5 -0.25
vt 0.5 0.25
vt -0.5 0.25
vt 0.3635077 -0.25
vt -0.6364923 -0.25
vt 0.3635077 0.25
vt -0.6364923 0.25
vt 0.6364923 -0.25
vt -0.3635077 -0.25
vt 0.6364923 0.25
vt -0.3635077 0.25
vt -0.5 0.3635077
vt 0.5 0.3635077
vt -0.5 -0.6364923
vt 0.5 -0.6364923

vn 0 0 1
vn -1 0 0
vn 0 0 -1
vn 1 0 0
vn 0 1 0
vn 0 -1 0

usemtl ProBuilder_Default_URP
f 3/3/1 4/4/1 2/2/1 1/1/1
f 4/7/2 6/8/2 5/6/2 2/5/2
f 6/3/3 8/4/3 7/2/3 5/1/3
f 8/11/4 3/12/4 1/10/4 7/9/4
f 8/15/5 6/16/5 4/14/5 3/13/5
f 1/14/6 2/13/6 5/15/6 7/16/6

